<?xml version="1.0" standalone="no"?>
<!DOCTYPE svg PUBLIC "-//W3C//DTD SVG 20010904//EN"
 "http://www.w3.org/TR/2001/REC-SVG-20010904/DTD/svg10.dtd">
<svg version="1.0" xmlns="http://www.w3.org/2000/svg"
 width="2000.000000pt" height="2000.000000pt" viewBox="0 0 2000.000000 2000.000000"
 preserveAspectRatio="xMidYMid meet">
<metadata>
Created by potrace 1.14, written by Peter Selinger 2001-2017
</metadata>
<g transform="translate(0.000000,2000.000000) scale(0.100000,-0.100000)"
fill="#000000" stroke="none">
<path d="M0 10000 l0 -10000 10000 0 10000 0 0 10000 0 10000 -10000 0 -10000
0 0 -10000z m16523 5345 c660 -119 1144 -594 1259 -1235 26 -145 36 -482 19
-626 -37 -311 -143 -616 -311 -894 -280 -463 -593 -736 -1165 -1015 -392 -191
-721 -288 -1140 -335 -105 -12 -199 -25 -210 -29 -17 -7 -38 -74 -126 -397
l-106 -389 -141 -3 c-133 -2 -143 -1 -163 19 -17 17 -20 29 -16 58 4 20 14
101 23 181 27 236 8 348 -74 441 -36 42 -125 84 -209 101 -65 13 -1956 19
-1968 6 -8 -8 -565 -2093 -565 -2115 0 -12 117 -13 788 -10 856 4 850 4 1040
63 145 46 265 135 343 257 21 33 59 114 85 180 34 89 56 131 80 155 l34 32
165 0 c91 0 165 -2 165 -4 0 -2 -108 -408 -240 -902 -133 -495 -245 -915 -250
-935 l-10 -36 -92 -6 c-109 -7 -233 4 -250 21 -9 9 -13 63 -13 190 0 170 -1
179 -26 233 -50 106 -124 165 -260 207 -48 14 -148 16 -880 19 l-825 4 -177
-663 c-299 -1123 -307 -1156 -307 -1354 0 -127 18 -192 68 -242 62 -62 157
-82 455 -98 l117 -6 0 -47 c0 -26 -13 -94 -29 -152 -16 -57 -31 -116 -35 -131
l-6 -28 -913 -1 c-1119 0 -1714 -11 -1887 -34 -589 -76 -1084 -292 -1499 -655
-300 -263 -493 -651 -552 -1115 -16 -129 -17 -457 0 -560 72 -459 264 -759
586 -916 339 -165 715 -93 950 182 90 106 184 334 204 499 32 249 -87 478
-304 586 -65 32 -180 63 -233 64 -65 0 -130 80 -118 145 23 122 269 161 508
79 201 -68 389 -244 471 -440 53 -126 72 -271 56 -444 -32 -378 -228 -655
-611 -868 -99 -55 -246 -113 -366 -144 -100 -26 -141 -31 -284 -35 -235 -8
-415 23 -622 104 -575 226 -897 620 -982 1201 -24 165 -22 500 5 678 72 480
276 880 627 1229 333 332 752 580 1199 711 261 76 483 107 895 124 578 24 672
44 806 175 109 107 134 174 318 860 175 654 226 850 226 869 0 17 -8 18 -107
14 -151 -7 -597 8 -793 27 -599 57 -914 179 -1175 457 -196 208 -330 449 -699
1256 -96 210 -202 428 -236 485 -82 139 -244 353 -280 372 -24 13 -87 15 -384
15 l-354 0 -12 -32 c-9 -28 -253 -923 -377 -1387 -32 -121 -36 -150 -37 -261
0 -108 3 -133 23 -182 46 -117 157 -205 306 -243 68 -17 244 -35 353 -35 113
0 162 -29 162 -96 0 -15 -14 -81 -31 -146 l-32 -118 -1655 0 -1655 0 6 52 c11
86 58 218 92 254 39 42 76 50 270 64 384 26 581 113 718 314 98 144 130 247
401 1251 453 1684 778 2903 792 2970 8 39 18 115 21 170 11 194 -48 318 -183
381 -180 85 -481 96 -821 29 -224 -44 -689 -183 -928 -277 -267 -106 -480
-252 -701 -480 -341 -352 -500 -811 -481 -1386 10 -324 82 -577 223 -789 335
-504 994 -564 1346 -123 108 136 171 318 184 534 11 177 -30 283 -160 411
-105 105 -205 154 -345 171 -71 8 -107 27 -131 67 -45 73 -12 149 78 184 66
25 251 25 342 -1 488 -140 718 -606 555 -1126 -74 -236 -237 -443 -459 -585
-149 -95 -377 -186 -553 -222 -134 -27 -434 -25 -566 5 -488 108 -889 393
-1085 771 -116 223 -165 438 -178 771 -26 654 211 1227 702 1700 376 362 701
528 1349 689 611 152 1434 253 2375 291 489 20 1335 10 1830 -20 509 -32 1024
-100 1316 -175 591 -151 938 -471 1051 -968 25 -113 23 -352 -6 -496 -33 -167
-92 -338 -171 -496 -268 -535 -762 -899 -1517 -1121 -73 -21 -133 -44 -133
-50 0 -6 22 -39 50 -73 167 -208 262 -372 488 -842 162 -335 423 -816 557
-1024 158 -247 379 -407 664 -481 51 -13 97 -24 101 -24 15 0 37 76 194 665
388 1452 391 1464 412 1625 21 167 16 253 -22 327 -53 104 -152 156 -333 174
-121 12 -158 23 -166 50 -4 10 10 86 30 169 l37 150 2322 0 c2010 0 2338 2
2451 15 523 61 976 258 1368 596 181 155 302 304 397 489 135 263 194 514 207
870 16 469 -112 863 -357 1093 -186 176 -407 265 -630 254 -260 -13 -473 -127
-601 -322 -170 -257 -218 -581 -115 -782 40 -79 103 -150 181 -202 91 -61 165
-90 273 -106 86 -13 112 -27 138 -77 32 -62 6 -125 -66 -161 -67 -33 -247 -37
-362 -8 -263 66 -467 255 -562 519 -30 86 -31 90 -31 272 0 170 2 193 27 282
35 123 74 210 144 314 188 284 544 494 930 549 122 18 372 13 497 -10z"/>
<path d="M6878 13903 c-16 -2 -28 -5 -28 -6 0 -1 -164 -611 -363 -1355 -212
-789 -360 -1355 -354 -1359 13 -8 593 5 782 18 616 40 1076 246 1393 624 275
327 414 719 416 1170 1 207 -9 258 -76 395 -33 69 -58 101 -132 175 -100 100
-182 152 -322 208 -199 80 -380 114 -669 127 -207 9 -594 11 -647 3z"/>
</g>
</svg>
